<svg height='15' width='16' fill="#d8dee9" xmlns="http://www.w3.org/2000/svg" xmlns:xlink="http://www.w3.org/1999/xlink" xmlns:serif="http://www.serif.com/" viewBox="0 0 25 25" version="1.1" xml:space="preserve" style="" x="0px" y="0px" fill-rule="evenodd" clip-rule="evenodd" stroke-linejoin="round" stroke-miterlimit="2"><g transform="matrix(1,0,0,1,-28.125,0)"><path d="M45.67,16.115C45.583,15.853 45.302,15.709 45.039,15.796C44.443,15.992 43.812,16.091 43.165,16.091C39.879,16.091 37.205,13.511 37.205,10.341C37.205,9.009 37.665,7.758 38.537,6.723C38.715,6.512 38.688,6.196 38.477,6.019C38.341,5.904 38.164,5.884 38.006,5.933L38.003,5.924C35.133,6.837 33.205,9.415 33.205,12.341C33.205,16.063 36.327,19.091 40.165,19.091C42.265,19.091 44.237,18.181 45.577,16.594L45.57,16.588C45.678,16.46 45.726,16.286 45.67,16.115Z"></path></g></svg>
