<svg height='11' width='14'  fill="#d8dee9" xmlns="http://www.w3.org/2000/svg" data-name="Layer 1" viewBox="0 0 48 48" x="0px" y="0px"><title>season solid icons</title><path d="M39.25,24A15.29,15.29,0,1,1,24,8.72,15.28,15.28,0,0,1,39.25,24Z"></path><path d="M34.71,38.69a18.5,18.5,0,0,1-3,1.77l5.06,3a1.21,1.21,0,0,0,1.8-1.3l-1.31-5.73A18.41,18.41,0,0,1,34.71,38.69Z"></path><path d="M13.31,9.22a18.14,18.14,0,0,1,2.9-1.72l-5-3a1.2,1.2,0,0,0-1.79,1.3l1.29,5.68A18.87,18.87,0,0,1,13.31,9.22Z"></path><path d="M42.05,26.26a18.51,18.51,0,0,1-2.13,6.51l5.87-.53a1.21,1.21,0,0,0,.68-2.11Z"></path><path d="M6.66,18.33A18.59,18.59,0,0,1,8,15.23l-5.79.52a1.21,1.21,0,0,0-.68,2.11l4.38,3.83A18.07,18.07,0,0,1,6.66,18.33Z"></path><path d="M42,21.74l4.43-3.88a1.21,1.21,0,0,0-.68-2.11l-5.86-.53a18.94,18.94,0,0,1,1.35,3.13A19.26,19.26,0,0,1,42,21.74Z"></path><path d="M5.9,26.31,1.53,30.13a1.21,1.21,0,0,0,.68,2.11l5.8.53A18.27,18.27,0,0,1,6.64,29.6,18,18,0,0,1,5.9,26.31Z"></path><path d="M37.26,11.57l1.31-5.75a1.2,1.2,0,0,0-1.79-1.3l-5.05,3a19.32,19.32,0,0,1,2.93,1.74A17.89,17.89,0,0,1,37.26,11.57Z"></path><path d="M10.71,36.51,9.42,42.17a1.21,1.21,0,0,0,1.8,1.3l5-3a18.21,18.21,0,0,1-3-1.75A19.4,19.4,0,0,1,10.71,36.51Z"></path><path d="M27.43,6.15,25.1.73a1.2,1.2,0,0,0-2.21,0L20.57,6.14A18.31,18.31,0,0,1,24,5.82,18.11,18.11,0,0,1,27.43,6.15Z"></path><path d="M20.6,41.93l2.29,5.34a1.2,1.2,0,0,0,2.21,0l2.3-5.35a18.51,18.51,0,0,1-6.8,0Z"></path></svg>
